<svg width="28" height="28" viewBox="0 0 28 28" fill="none" xmlns="http://www.w3.org/2000/svg">
<path d="M14 27.3333C21.3638 27.3333 27.3333 21.3638 27.3333 14C27.3333 6.63616 21.3638 0.666626 14 0.666626C6.63619 0.666626 0.666656 6.63616 0.666656 14C0.666656 21.3638 6.63619 27.3333 14 27.3333Z" stroke="#434A54" stroke-miterlimit="1" stroke-linecap="round" stroke-linejoin="round"/>
<path d="M20.3115 20.413C19.4884 20.9419 18.6011 21.3386 17.6493 21.6031C16.6975 21.8675 15.6599 21.9999 14.5364 21.9999C13.4128 21.9999 12.3573 21.8281 11.3699 21.4847C10.3823 21.1411 9.51988 20.6346 8.78294 19.9649C8.04588 19.295 7.46428 18.469 7.03868 17.4866C6.61281 16.5042 6.40001 15.3709 6.40001 14.0861C6.40001 12.9182 6.60748 11.8449 7.02254 10.8659C7.43748 9.88701 8.00108 9.04554 8.71321 8.34141C9.42521 7.63727 10.2536 7.08941 11.1981 6.69781C12.1428 6.30621 13.1481 6.11047 14.2144 6.11047C14.8369 6.11047 15.4435 6.17074 16.0339 6.29087C16.6243 6.41114 17.1824 6.58967 17.7084 6.82674C18.2344 7.06367 18.7191 7.36261 19.1629 7.72327C19.6065 8.08394 19.9876 8.50821 20.3061 8.99581C20.6244 9.48367 20.8731 10.0331 21.0521 10.6445C21.2309 11.2561 21.3205 11.9291 21.3205 12.6642C21.3205 13.4199 21.2201 14.1017 21.02 14.7097C20.8195 15.3177 20.5477 15.8365 20.2041 16.2657C19.8607 16.695 19.4617 17.0266 19.0073 17.2601C18.5529 17.4937 18.0717 17.6103 17.5636 17.6103C17.1915 17.6103 16.8801 17.5537 16.6297 17.4403C16.3791 17.3269 16.1841 17.1673 16.0448 16.9611C15.9052 16.7551 15.8175 16.5077 15.7817 16.2193C15.7459 15.9307 15.7604 15.5511 15.8105 15.2007C15.4456 15.9907 14.9855 16.6298 14.4453 16.9971C13.9049 17.3647 13.3128 17.5485 12.6688 17.5485C12.2895 17.5485 11.9639 17.485 11.692 17.3578C11.42 17.2307 11.1928 17.0589 11.0104 16.8425C10.8279 16.6262 10.6937 16.3721 10.6079 16.0801C10.522 15.7882 10.4791 15.4739 10.4791 15.1373C10.4791 14.7526 10.5309 14.3627 10.6348 13.9677C10.7385 13.5727 10.8905 13.1949 11.0909 12.8342C11.2912 12.4735 11.5381 12.1353 11.8316 11.8193C12.1249 11.5033 12.4577 11.2303 12.8299 11.0001C13.2019 10.7699 13.6135 10.5879 14.0643 10.4539C14.5151 10.3199 15.0016 10.253 15.5241 10.253C15.8176 10.253 16.1163 10.2787 16.4204 10.3303C16.7245 10.3818 16.984 10.4591 17.1985 10.5622L15.8105 15.2009" stroke="#434A54" stroke-miterlimit="1" stroke-linecap="round" stroke-linejoin="round"/>
</svg>
