<svg width="28" height="28" viewBox="0 0 28 28" fill="none" xmlns="http://www.w3.org/2000/svg">
<path d="M14 27.3333C21.3638 27.3333 27.3333 21.3638 27.3333 14C27.3333 6.63616 21.3638 0.666626 14 0.666626C6.63619 0.666626 0.666656 6.63616 0.666656 14C0.666656 21.3638 6.63619 27.3333 14 27.3333Z" stroke="#434A54" stroke-miterlimit="1" stroke-linecap="round" stroke-linejoin="round"/>
<path d="M18.68 22H9.31998C7.48638 22 5.99998 20.5136 5.99998 18.68V9.32C5.99998 7.4864 7.48638 6 9.31998 6H18.68C20.5136 6 22 7.4864 22 9.32V18.68C22 20.5136 20.5136 22 18.68 22Z" stroke="#434A54" stroke-miterlimit="1" stroke-linecap="round" stroke-linejoin="round"/>
<path d="M14 17.9467C16.1797 17.9467 17.9467 16.1797 17.9467 14C17.9467 11.8203 16.1797 10.0533 14 10.0533C11.8203 10.0533 10.0533 11.8203 10.0533 14C10.0533 16.1797 11.8203 17.9467 14 17.9467Z" stroke="#434A54" stroke-miterlimit="1" stroke-linecap="round" stroke-linejoin="round"/>
<path d="M18.64 10.6132C19.3322 10.6132 19.8934 10.0521 19.8934 9.3599C19.8934 8.6677 19.3322 8.10657 18.64 8.10657C17.9478 8.10657 17.3867 8.6677 17.3867 9.3599C17.3867 10.0521 17.9478 10.6132 18.64 10.6132Z" fill="#434A54"/>
</svg>
