<svg width="43" height="42" viewBox="0 0 43 42" fill="none" xmlns="http://www.w3.org/2000/svg">
<g filter="url(#filter0_d)">
<path d="M29.2122 17.5208H25.827C25.6767 17.5365 25.5249 17.5204 25.3812 17.4737C25.2375 17.427 25.1053 17.3506 24.9931 17.2494C24.8808 17.1483 24.7911 17.0248 24.7297 16.8867C24.6682 16.7487 24.6365 16.5993 24.6365 16.4483C24.6365 16.2972 24.6682 16.1478 24.7297 16.0098C24.7911 15.8718 24.8808 15.7482 24.9931 15.6471C25.1053 15.5459 25.2375 15.4695 25.3812 15.4228C25.5249 15.3761 25.6767 15.36 25.827 15.3758H29.2122C29.3624 15.36 29.5143 15.3761 29.658 15.4228C29.8016 15.4695 29.9339 15.5459 30.0461 15.6471C30.1584 15.7482 30.2481 15.8718 30.3095 16.0098C30.371 16.1478 30.4027 16.2972 30.4027 16.4483C30.4027 16.5993 30.371 16.7487 30.3095 16.8867C30.2481 17.0248 30.1584 17.1483 30.0461 17.2494C29.9339 17.3506 29.8016 17.427 29.658 17.4737C29.5143 17.5204 29.3624 17.5365 29.2122 17.5208V17.5208ZM28.4497 21.7757H24.9163C24.7661 21.7914 24.6142 21.7753 24.4706 21.7286C24.3269 21.6819 24.1947 21.6055 24.0824 21.5043C23.9702 21.4032 23.8804 21.2797 23.819 21.1416C23.7576 21.0036 23.7258 20.8542 23.7258 20.7032C23.7258 20.5521 23.7576 20.4027 23.819 20.2647C23.8804 20.1267 23.9702 20.0031 24.0824 19.902C24.1947 19.8009 24.3269 19.7244 24.4706 19.6777C24.6142 19.631 24.7661 19.6149 24.9163 19.6307H28.4497C28.6 19.6149 28.7519 19.631 28.8955 19.6777C29.0392 19.7244 29.1714 19.8009 29.2837 19.902C29.3959 20.0031 29.4857 20.1267 29.5471 20.2647C29.6085 20.4027 29.6403 20.5521 29.6403 20.7032C29.6403 20.8542 29.6085 21.0036 29.5471 21.1416C29.4857 21.2797 29.3959 21.4032 29.2837 21.5043C29.1714 21.6055 29.0392 21.6819 28.8955 21.7286C28.7519 21.7753 28.6 21.7914 28.4497 21.7757Z" fill="#FFB612"/>
<path d="M28.8807 27.3507H16.9565C15.4814 27.3487 14.0572 26.8118 12.9477 25.8397C11.8383 24.8676 11.119 23.5262 10.9232 22.0643L9.33979 11.0507V11.0351C9.32809 10.9278 9.16819 9.73635 8.90884 7.83315H5.50999C5.22399 7.83315 4.94971 7.71954 4.74748 7.51731C4.54525 7.31508 4.43164 7.0408 4.43164 6.7548C4.43164 6.46881 4.54525 6.19452 4.74748 5.99229C4.94971 5.79006 5.22399 5.67645 5.50999 5.67645H9.01999C9.51311 5.67871 9.98892 5.85853 10.3603 6.18298C10.7316 6.50743 10.9737 6.95479 11.0421 7.44315C11.4185 10.2512 11.475 10.6841 11.4867 10.7718L13.0721 21.7796C13.1983 22.7244 13.6633 23.5912 14.3806 24.2189C15.098 24.8466 16.0189 25.1924 16.9721 25.1921H28.8963C29.6421 25.1979 30.374 24.9897 31.0051 24.5922C31.6362 24.1948 32.1401 23.6247 32.457 22.9496L32.4765 22.9067C32.4765 22.9067 34.487 18.9755 35.6219 16.7486C36.2342 15.5529 36.4933 14.2075 36.3687 12.87C36.2966 12.09 36.1289 11.7351 36.0372 11.5967V11.585C35.6834 11.0392 35.1987 10.5906 34.6272 10.28C34.0557 9.96935 33.4156 9.80661 32.7651 9.80655H16.545C16.3948 9.82227 16.2429 9.80623 16.0992 9.7595C15.9556 9.71276 15.8234 9.63635 15.7111 9.53524C15.5989 9.43412 15.5091 9.31055 15.4477 9.17253C15.3863 9.03451 15.3545 8.88512 15.3545 8.73405C15.3545 8.58298 15.3863 8.43359 15.4477 8.29557C15.5091 8.15755 15.5989 8.03398 15.7111 7.93286C15.8234 7.83175 15.9556 7.75535 16.0992 7.70861C16.2429 7.66187 16.3948 7.64584 16.545 7.66155H32.7612C33.7708 7.65964 34.7648 7.91062 35.6525 8.39158C36.5401 8.87254 37.2932 9.56816 37.8429 10.415C38.2115 10.9707 38.4279 11.7098 38.5235 12.6809C38.682 14.4252 38.3397 16.1786 37.5368 17.7353C36.4487 19.8705 34.5552 23.5736 34.3992 23.8739C33.9056 24.9188 33.1243 25.8012 32.1468 26.4178C31.1694 27.0343 30.0364 27.3593 28.8807 27.3546V27.3507ZM16.2213 33.3236C15.6612 33.3236 15.1241 33.1011 14.728 32.705C14.332 32.309 14.1095 31.7718 14.1095 31.2117C14.1095 30.6516 14.332 30.1144 14.728 29.7184C15.1241 29.3223 15.6612 29.0998 16.2213 29.0998C16.7744 29.1058 17.3035 29.3262 17.6972 29.7148C18.0908 30.1033 18.3181 30.6295 18.3312 31.1825V31.2098C18.3312 31.7697 18.1091 32.3068 17.7135 32.7031C17.3179 33.0994 16.7813 33.3225 16.2213 33.3236V33.3236ZM29.5847 33.3236C29.167 33.3239 28.7586 33.2005 28.4111 32.9687C28.0636 32.737 27.7926 32.4074 27.6324 32.0217C27.4722 31.6359 27.43 31.2113 27.5111 30.8016C27.5922 30.3919 27.793 30.0154 28.0881 29.7198C28.3831 29.4242 28.7592 29.2227 29.1688 29.1408C29.5784 29.0589 30.0031 29.1004 30.3891 29.2599C30.7751 29.4193 31.1052 29.6897 31.3376 30.0368C31.57 30.3839 31.6942 30.7921 31.6946 31.2098C31.6946 31.7697 31.4724 32.3068 31.0769 32.7031C30.6813 33.0994 30.1446 33.3225 29.5847 33.3236V33.3236Z" fill="#593A25"/>
</g>
<defs>
<filter id="filter0_d" x="-2" y="0" width="47" height="47" filterUnits="userSpaceOnUse" color-interpolation-filters="sRGB">
<feFlood flood-opacity="0" result="BackgroundImageFix"/>
<feColorMatrix in="SourceAlpha" type="matrix" values="0 0 0 0 0 0 0 0 0 0 0 0 0 0 0 0 0 0 127 0"/>
<feOffset dy="4"/>
<feGaussianBlur stdDeviation="2"/>
<feColorMatrix type="matrix" values="0 0 0 0 0 0 0 0 0 0 0 0 0 0 0 0 0 0 0.25 0"/>
<feBlend mode="normal" in2="BackgroundImageFix" result="effect1_dropShadow"/>
<feBlend mode="normal" in="SourceGraphic" in2="effect1_dropShadow" result="shape"/>
</filter>
</defs>
</svg>
