<svg width="39" height="39" viewBox="0 0 39 39" fill="none" xmlns="http://www.w3.org/2000/svg">
<path d="M19.5 19.7711C18.4085 19.7728 17.3277 19.5563 16.3211 19.1344C15.3144 18.7124 14.4023 18.0935 13.6383 17.3141C12.0893 15.7463 11.2241 13.629 11.232 11.4251C11.232 8.8062 11.739 6.8172 12.7783 5.3469C14.1433 3.4164 16.4112 2.4375 19.5 2.4375C22.6531 2.4375 24.9385 3.4125 26.286 5.3625C27.2961 6.8133 27.768 8.7438 27.768 11.429C27.7759 13.6329 26.9107 15.7502 25.3617 17.318C24.5981 18.0978 23.686 18.7167 22.6792 19.138C21.6724 19.5593 20.5914 19.7746 19.5 19.7711V19.7711ZM19.5 4.5786C17.1112 4.5786 15.4849 5.2338 14.5255 6.58515C13.7455 7.67715 13.375 9.2586 13.375 11.4212C13.375 13.0456 14.0203 14.6035 15.169 15.7521C16.3176 16.9008 17.8755 17.5461 19.5 17.5461C21.1244 17.5461 22.6823 16.9008 23.831 15.7521C24.9796 14.6035 25.6249 13.0456 25.6249 11.4212C25.6249 9.19425 25.2739 7.6518 24.5271 6.57735C23.595 5.2338 21.9433 4.5786 19.5 4.5786V4.5786Z" fill="#FFB612"/>
<path d="M27.495 36.5625H11.505C9.52423 36.5625 7.62459 35.7756 6.22397 34.375C4.82336 32.9744 4.0365 31.0748 4.0365 29.094C4.0365 27.1132 4.82336 25.2136 6.22397 23.813C7.62459 22.4124 9.52423 21.6255 11.505 21.6255H27.495C29.4758 21.6255 31.3754 22.4124 32.776 23.813C34.1766 25.2136 34.9635 27.1132 34.9635 29.094C34.9635 31.0748 34.1766 32.9744 32.776 34.375C31.3754 35.7756 29.4758 36.5625 27.495 36.5625ZM11.505 23.7686C10.1105 23.7952 8.78214 24.3679 7.80538 25.3636C6.82863 26.3592 6.28145 27.6983 6.28145 29.093C6.28145 30.4878 6.82863 31.8269 7.80538 32.8225C8.78214 33.8181 10.1105 34.3908 11.505 34.4175H27.495C28.8895 34.3908 30.2179 33.8181 31.1946 32.8225C32.1714 31.8269 32.7185 30.4878 32.7185 29.093C32.7185 27.6983 32.1714 26.3592 31.1946 25.3636C30.2179 24.3679 28.8895 23.7952 27.495 23.7686H11.505Z" fill="#593A25"/>
</svg>
